# MagicaVoxel @ Ephtracy

# group
g enemy1_2

# material
mtllib enemy1_2.mtl
usemtl palette

# normals
vn -1 0 0
vn 1 0 0
vn 0 0 1
vn 0 0 -1
vn 0 -1 0
vn 0 1 0

# texcoords
vt 0.541016 0.5
vt 0.544922 0.5
vt 0.994141 0.5

# verts
v -5.5 4 0.5
v -5.5 4 -0.5
v -5.5 7 0.5
v -5.5 7 -0.5
v -4.5 0 0.5
v -4.5 0 -0.5
v -4.5 1 0.5
v -4.5 1 -0.5
v -4.5 3 0.5
v -4.5 3 -0.5
v -4.5 4 0.5
v -4.5 4 -0.5
v -3.5 1 0.5
v -3.5 1 -0.5
v -3.5 3 1.5
v -3.5 3 0.5
v -3.5 3 -0.5
v -3.5 3 -1.5
v -3.5 5 1.5
v -3.5 5 0.5
v -3.5 5 -0.5
v -3.5 5 -1.5
v -3.5 6 0.5
v -3.5 6 -0.5
v -3.5 7 0.5
v -3.5 7 -0.5
v -3.5 8 0.5
v -3.5 8 -0.5
v -2.5 2 1.5
v -2.5 2 0.5
v -2.5 2 -0.5
v -2.5 2 -1.5
v -2.5 3 1.5
v -2.5 3 0.5
v -2.5 3 -0.5
v -2.5 3 -1.5
v -2.5 5 1.5
v -2.5 5 0.5
v -2.5 5 -0.5
v -2.5 5 -1.5
v -2.5 6 1.5
v -2.5 6 0.5
v -2.5 6 -0.5
v -2.5 6 -1.5
v -2.5 7 0.5
v -2.5 7 -0.5
v -1.5 4 -0.5
v -1.5 4 -1.5
v -1.5 5 -0.5
v -1.5 5 -1.5
v 1.5 6 0.5
v 1.5 6 -0.5
v 1.5 7 0.5
v 1.5 7 -0.5
v 2.5 1 0.5
v 2.5 1 -0.5
v 2.5 2 0.5
v 2.5 2 -0.5
v 2.5 4 -0.5
v 2.5 4 -1.5
v 2.5 5 -0.5
v 2.5 5 -1.5
v 2.5 7 0.5
v 2.5 7 -0.5
v 2.5 8 0.5
v 2.5 8 -0.5
v 3.5 0 0.5
v 3.5 0 -0.5
v 3.5 1 0.5
v 3.5 1 -0.5
v 4.5 5 0.5
v 4.5 5 -0.5
v 4.5 7 0.5
v 4.5 7 -0.5
v -4.5 5 0.5
v -4.5 5 -0.5
v -4.5 7 0.5
v -4.5 7 -0.5
v -3.5 0 0.5
v -3.5 0 -0.5
v -3.5 1 0.5
v -3.5 1 -0.5
v -2.5 1 0.5
v -2.5 1 -0.5
v -2.5 2 0.5
v -2.5 2 -0.5
v -2.5 4 -0.5
v -2.5 4 -1.5
v -2.5 5 -0.5
v -2.5 5 -1.5
v -2.5 7 0.5
v -2.5 7 -0.5
v -2.5 8 0.5
v -2.5 8 -0.5
v -1.5 6 0.5
v -1.5 6 -0.5
v -1.5 7 0.5
v -1.5 7 -0.5
v 1.5 4 -0.5
v 1.5 4 -1.5
v 1.5 5 -0.5
v 1.5 5 -1.5
v 2.5 2 1.5
v 2.5 2 0.5
v 2.5 2 -0.5
v 2.5 2 -1.5
v 2.5 3 1.5
v 2.5 3 0.5
v 2.5 3 -0.5
v 2.5 3 -1.5
v 2.5 5 1.5
v 2.5 5 0.5
v 2.5 5 -0.5
v 2.5 5 -1.5
v 2.5 6 1.5
v 2.5 6 0.5
v 2.5 6 -0.5
v 2.5 6 -1.5
v 2.5 7 0.5
v 2.5 7 -0.5
v 3.5 1 0.5
v 3.5 1 -0.5
v 3.5 3 1.5
v 3.5 3 0.5
v 3.5 3 -0.5
v 3.5 3 -1.5
v 3.5 5 1.5
v 3.5 5 0.5
v 3.5 5 -0.5
v 3.5 5 -1.5
v 3.5 6 0.5
v 3.5 6 -0.5
v 3.5 7 0.5
v 3.5 7 -0.5
v 3.5 8 0.5
v 3.5 8 -0.5
v 4.5 0 0.5
v 4.5 0 -0.5
v 4.5 1 0.5
v 4.5 1 -0.5
v 4.5 3 0.5
v 4.5 3 -0.5
v 4.5 4 0.5
v 4.5 4 -0.5
v 5.5 4 0.5
v 5.5 4 -0.5
v 5.5 7 0.5
v 5.5 7 -0.5
v -3.5 3 1.5
v -3.5 5 1.5
v -2.5 2 1.5
v -2.5 3 1.5
v -2.5 5 1.5
v -2.5 6 1.5
v 2.5 2 1.5
v 2.5 3 1.5
v 2.5 5 1.5
v 2.5 6 1.5
v 3.5 3 1.5
v 3.5 5 1.5
v -5.5 4 0.5
v -5.5 7 0.5
v -4.5 0 0.5
v -4.5 1 0.5
v -4.5 3 0.5
v -4.5 4 0.5
v -4.5 5 0.5
v -4.5 7 0.5
v -3.5 0 0.5
v -3.5 1 0.5
v -3.5 3 0.5
v -3.5 5 0.5
v -3.5 6 0.5
v -3.5 7 0.5
v -3.5 8 0.5
v -2.5 1 0.5
v -2.5 2 0.5
v -2.5 3 0.5
v -2.5 5 0.5
v -2.5 6 0.5
v -2.5 7 0.5
v -2.5 8 0.5
v -1.5 6 0.5
v -1.5 7 0.5
v 1.5 6 0.5
v 1.5 7 0.5
v 2.5 1 0.5
v 2.5 2 0.5
v 2.5 3 0.5
v 2.5 5 0.5
v 2.5 6 0.5
v 2.5 7 0.5
v 2.5 8 0.5
v 3.5 0 0.5
v 3.5 1 0.5
v 3.5 3 0.5
v 3.5 5 0.5
v 3.5 6 0.5
v 3.5 7 0.5
v 3.5 8 0.5
v 4.5 0 0.5
v 4.5 1 0.5
v 4.5 3 0.5
v 4.5 4 0.5
v 4.5 5 0.5
v 4.5 7 0.5
v 5.5 4 0.5
v 5.5 7 0.5
v -5.5 4 -0.5
v -5.5 7 -0.5
v -4.5 0 -0.5
v -4.5 1 -0.5
v -4.5 3 -0.5
v -4.5 4 -0.5
v -4.5 5 -0.5
v -4.5 7 -0.5
v -3.5 0 -0.5
v -3.5 1 -0.5
v -3.5 3 -0.5
v -3.5 5 -0.5
v -3.5 6 -0.5
v -3.5 7 -0.5
v -3.5 8 -0.5
v -2.5 1 -0.5
v -2.5 2 -0.5
v -2.5 3 -0.5
v -2.5 4 -0.5
v -2.5 5 -0.5
v -2.5 6 -0.5
v -2.5 7 -0.5
v -2.5 8 -0.5
v -1.5 4 -0.5
v -1.5 5 -0.5
v -1.5 6 -0.5
v -1.5 7 -0.5
v 1.5 4 -0.5
v 1.5 5 -0.5
v 1.5 6 -0.5
v 1.5 7 -0.5
v 2.5 1 -0.5
v 2.5 2 -0.5
v 2.5 3 -0.5
v 2.5 4 -0.5
v 2.5 5 -0.5
v 2.5 6 -0.5
v 2.5 7 -0.5
v 2.5 8 -0.5
v 3.5 0 -0.5
v 3.5 1 -0.5
v 3.5 3 -0.5
v 3.5 5 -0.5
v 3.5 6 -0.5
v 3.5 7 -0.5
v 3.5 8 -0.5
v 4.5 0 -0.5
v 4.5 1 -0.5
v 4.5 3 -0.5
v 4.5 4 -0.5
v 4.5 5 -0.5
v 4.5 7 -0.5
v 5.5 4 -0.5
v 5.5 7 -0.5
v -3.5 3 -1.5
v -3.5 5 -1.5
v -2.5 2 -1.5
v -2.5 3 -1.5
v -2.5 4 -1.5
v -2.5 5 -1.5
v -2.5 6 -1.5
v -1.5 4 -1.5
v -1.5 5 -1.5
v 1.5 4 -1.5
v 1.5 5 -1.5
v 2.5 2 -1.5
v 2.5 3 -1.5
v 2.5 4 -1.5
v 2.5 5 -1.5
v 2.5 6 -1.5
v 3.5 3 -1.5
v 3.5 5 -1.5
v -4.5 0 0.5
v -3.5 0 0.5
v 3.5 0 0.5
v 4.5 0 0.5
v -4.5 0 -0.5
v -3.5 0 -0.5
v 3.5 0 -0.5
v 4.5 0 -0.5
v -3.5 1 0.5
v -2.5 1 0.5
v 2.5 1 0.5
v 3.5 1 0.5
v -3.5 1 -0.5
v -2.5 1 -0.5
v 2.5 1 -0.5
v 3.5 1 -0.5
v -2.5 2 1.5
v 2.5 2 1.5
v -2.5 2 0.5
v 2.5 2 0.5
v -2.5 2 -0.5
v 2.5 2 -0.5
v -2.5 2 -1.5
v 2.5 2 -1.5
v -3.5 3 1.5
v -2.5 3 1.5
v 2.5 3 1.5
v 3.5 3 1.5
v -4.5 3 0.5
v -3.5 3 0.5
v -2.5 3 0.5
v 2.5 3 0.5
v 3.5 3 0.5
v 4.5 3 0.5
v -4.5 3 -0.5
v -3.5 3 -0.5
v -2.5 3 -0.5
v 2.5 3 -0.5
v 3.5 3 -0.5
v 4.5 3 -0.5
v -3.5 3 -1.5
v -2.5 3 -1.5
v 2.5 3 -1.5
v 3.5 3 -1.5
v -5.5 4 0.5
v -4.5 4 0.5
v 4.5 4 0.5
v 5.5 4 0.5
v -5.5 4 -0.5
v -4.5 4 -0.5
v 4.5 4 -0.5
v 5.5 4 -0.5
v -2.5 5 -0.5
v -1.5 5 -0.5
v 1.5 5 -0.5
v 2.5 5 -0.5
v -2.5 5 -1.5
v -1.5 5 -1.5
v 1.5 5 -1.5
v 2.5 5 -1.5
v -3.5 7 0.5
v -2.5 7 0.5
v 2.5 7 0.5
v 3.5 7 0.5
v -3.5 7 -0.5
v -2.5 7 -0.5
v 2.5 7 -0.5
v 3.5 7 -0.5
v -4.5 1 0.5
v -3.5 1 0.5
v 3.5 1 0.5
v 4.5 1 0.5
v -4.5 1 -0.5
v -3.5 1 -0.5
v 3.5 1 -0.5
v 4.5 1 -0.5
v -2.5 4 -0.5
v -1.5 4 -0.5
v 1.5 4 -0.5
v 2.5 4 -0.5
v -2.5 4 -1.5
v -1.5 4 -1.5
v 1.5 4 -1.5
v 2.5 4 -1.5
v -3.5 5 1.5
v -2.5 5 1.5
v 2.5 5 1.5
v 3.5 5 1.5
v -4.5 5 0.5
v -3.5 5 0.5
v -2.5 5 0.5
v 2.5 5 0.5
v 3.5 5 0.5
v 4.5 5 0.5
v -4.5 5 -0.5
v -3.5 5 -0.5
v -2.5 5 -0.5
v 2.5 5 -0.5
v 3.5 5 -0.5
v 4.5 5 -0.5
v -3.5 5 -1.5
v -2.5 5 -1.5
v 2.5 5 -1.5
v 3.5 5 -1.5
v -2.5 6 1.5
v 2.5 6 1.5
v -3.5 6 0.5
v -2.5 6 0.5
v -1.5 6 0.5
v 1.5 6 0.5
v 2.5 6 0.5
v 3.5 6 0.5
v -3.5 6 -0.5
v -2.5 6 -0.5
v -1.5 6 -0.5
v 1.5 6 -0.5
v 2.5 6 -0.5
v 3.5 6 -0.5
v -2.5 6 -1.5
v 2.5 6 -1.5
v -5.5 7 0.5
v -4.5 7 0.5
v -2.5 7 0.5
v -1.5 7 0.5
v 1.5 7 0.5
v 2.5 7 0.5
v 4.5 7 0.5
v 5.5 7 0.5
v -5.5 7 -0.5
v -4.5 7 -0.5
v -2.5 7 -0.5
v -1.5 7 -0.5
v 1.5 7 -0.5
v 2.5 7 -0.5
v 4.5 7 -0.5
v 5.5 7 -0.5
v -3.5 8 0.5
v -2.5 8 0.5
v 2.5 8 0.5
v 3.5 8 0.5
v -3.5 8 -0.5
v -2.5 8 -0.5
v 2.5 8 -0.5
v 3.5 8 -0.5

# faces
f 3/2/1 2/2/1 1/2/1
f 4/2/1 2/2/1 3/2/1
f 7/2/1 6/2/1 5/2/1
f 8/2/1 6/2/1 7/2/1
f 11/2/1 10/2/1 9/2/1
f 12/2/1 10/2/1 11/2/1
f 16/2/1 14/2/1 13/2/1
f 17/2/1 14/2/1 16/2/1
f 19/1/1 16/1/1 15/1/1
f 20/1/1 16/1/1 19/1/1
f 21/1/1 18/1/1 17/1/1
f 22/1/1 18/1/1 21/1/1
f 23/2/1 21/2/1 20/2/1
f 24/2/1 21/2/1 23/2/1
f 27/2/1 26/2/1 25/2/1
f 28/2/1 26/2/1 27/2/1
f 33/1/1 30/1/1 29/1/1
f 34/1/1 30/1/1 33/1/1
f 35/1/1 32/1/1 31/1/1
f 36/1/1 32/1/1 35/1/1
f 41/1/1 38/1/1 37/1/1
f 42/1/1 38/1/1 41/1/1
f 43/1/1 40/1/1 39/1/1
f 44/1/1 40/1/1 43/1/1
f 45/2/1 43/2/1 42/2/1
f 46/2/1 43/2/1 45/2/1
f 49/1/1 48/1/1 47/1/1
f 50/1/1 48/1/1 49/1/1
f 53/2/1 52/2/1 51/2/1
f 54/2/1 52/2/1 53/2/1
f 57/2/1 56/2/1 55/2/1
f 58/2/1 56/2/1 57/2/1
f 61/1/1 60/1/1 59/1/1
f 62/1/1 60/1/1 61/1/1
f 65/2/1 64/2/1 63/2/1
f 66/2/1 64/2/1 65/2/1
f 69/2/1 68/2/1 67/2/1
f 70/2/1 68/2/1 69/2/1
f 73/2/1 72/2/1 71/2/1
f 74/2/1 72/2/1 73/2/1
f 75/2/2 76/2/2 77/2/2
f 77/2/2 76/2/2 78/2/2
f 79/2/2 80/2/2 81/2/2
f 81/2/2 80/2/2 82/2/2
f 83/2/2 84/2/2 85/2/2
f 85/2/2 84/2/2 86/2/2
f 87/1/2 88/1/2 89/1/2
f 89/1/2 88/1/2 90/1/2
f 91/2/2 92/2/2 93/2/2
f 93/2/2 92/2/2 94/2/2
f 95/2/2 96/2/2 97/2/2
f 97/2/2 96/2/2 98/2/2
f 99/1/2 100/1/2 101/1/2
f 101/1/2 100/1/2 102/1/2
f 103/1/2 104/1/2 107/1/2
f 107/1/2 104/1/2 108/1/2
f 105/1/2 106/1/2 109/1/2
f 109/1/2 106/1/2 110/1/2
f 111/1/2 112/1/2 115/1/2
f 115/1/2 112/1/2 116/1/2
f 113/1/2 114/1/2 117/1/2
f 117/1/2 114/1/2 118/1/2
f 116/2/2 117/2/2 119/2/2
f 119/2/2 117/2/2 120/2/2
f 121/2/2 122/2/2 124/2/2
f 124/2/2 122/2/2 125/2/2
f 123/1/2 124/1/2 127/1/2
f 127/1/2 124/1/2 128/1/2
f 125/1/2 126/1/2 129/1/2
f 129/1/2 126/1/2 130/1/2
f 128/2/2 129/2/2 131/2/2
f 131/2/2 129/2/2 132/2/2
f 133/2/2 134/2/2 135/2/2
f 135/2/2 134/2/2 136/2/2
f 137/2/2 138/2/2 139/2/2
f 139/2/2 138/2/2 140/2/2
f 141/2/2 142/2/2 143/2/2
f 143/2/2 142/2/2 144/2/2
f 145/2/2 146/2/2 147/2/2
f 147/2/2 146/2/2 148/2/2
f 152/1/3 150/1/3 149/1/3
f 153/1/3 150/1/3 152/1/3
f 155/1/3 152/1/3 151/1/3
f 155/1/3 154/1/3 153/1/3
f 155/1/3 153/1/3 152/1/3
f 156/1/3 154/1/3 155/1/3
f 157/1/3 154/1/3 156/1/3
f 158/1/3 154/1/3 157/1/3
f 159/1/3 157/1/3 156/1/3
f 160/1/3 157/1/3 159/1/3
f 166/2/3 162/2/3 161/2/3
f 167/2/3 162/2/3 166/2/3
f 168/2/3 162/2/3 167/2/3
f 169/2/3 164/2/3 163/2/3
f 170/2/3 164/2/3 169/2/3
f 171/2/3 166/2/3 165/2/3
f 171/2/3 167/2/3 166/2/3
f 172/2/3 167/2/3 171/2/3
f 176/2/3 171/2/3 170/2/3
f 177/2/3 171/2/3 176/2/3
f 178/2/3 171/2/3 177/2/3
f 179/2/3 173/2/3 172/2/3
f 180/2/3 173/2/3 179/2/3
f 181/2/3 175/2/3 174/2/3
f 182/2/3 175/2/3 181/2/3
f 183/2/3 181/2/3 180/2/3
f 184/2/3 181/2/3 183/2/3
f 191/2/3 186/2/3 185/2/3
f 192/2/3 186/2/3 191/2/3
f 195/2/3 189/2/3 188/2/3
f 195/2/3 188/2/3 187/2/3
f 196/2/3 189/2/3 195/2/3
f 197/2/3 191/2/3 190/2/3
f 198/2/3 191/2/3 197/2/3
f 199/2/3 193/2/3 192/2/3
f 200/2/3 193/2/3 199/2/3
f 201/2/3 195/2/3 194/2/3
f 202/2/3 195/2/3 201/2/3
f 203/2/3 197/2/3 196/2/3
f 204/2/3 197/2/3 203/2/3
f 205/2/3 197/2/3 204/2/3
f 207/2/3 206/2/3 205/2/3
f 207/2/3 205/2/3 204/2/3
f 208/2/3 206/2/3 207/2/3
f 209/2/4 210/2/4 214/2/4
f 214/2/4 210/2/4 215/2/4
f 215/2/4 210/2/4 216/2/4
f 211/2/4 212/2/4 217/2/4
f 217/2/4 212/2/4 218/2/4
f 213/2/4 214/2/4 219/2/4
f 214/2/4 215/2/4 219/2/4
f 219/2/4 215/2/4 220/2/4
f 218/2/4 219/2/4 224/2/4
f 224/2/4 219/2/4 225/2/4
f 225/2/4 219/2/4 226/2/4
f 220/2/4 221/2/4 228/2/4
f 228/2/4 221/2/4 229/2/4
f 222/2/4 223/2/4 230/2/4
f 230/2/4 223/2/4 231/2/4
f 227/3/4 228/3/4 232/3/4
f 232/3/4 228/3/4 233/3/4
f 229/2/4 230/2/4 234/2/4
f 234/2/4 230/2/4 235/2/4
f 236/3/4 237/3/4 243/3/4
f 243/3/4 237/3/4 244/3/4
f 238/2/4 239/2/4 245/2/4
f 245/2/4 239/2/4 246/2/4
f 241/2/4 242/2/4 249/2/4
f 240/2/4 241/2/4 249/2/4
f 249/2/4 242/2/4 250/2/4
f 244/2/4 245/2/4 251/2/4
f 251/2/4 245/2/4 252/2/4
f 246/2/4 247/2/4 253/2/4
f 253/2/4 247/2/4 254/2/4
f 248/2/4 249/2/4 255/2/4
f 255/2/4 249/2/4 256/2/4
f 250/2/4 251/2/4 257/2/4
f 257/2/4 251/2/4 258/2/4
f 258/2/4 251/2/4 259/2/4
f 259/2/4 260/2/4 261/2/4
f 258/2/4 259/2/4 261/2/4
f 261/2/4 260/2/4 262/2/4
f 263/1/4 264/1/4 266/1/4
f 266/1/4 264/1/4 267/1/4
f 267/1/4 264/1/4 268/1/4
f 265/1/4 266/1/4 270/1/4
f 266/1/4 267/1/4 270/1/4
f 268/1/4 269/1/4 271/1/4
f 265/1/4 270/1/4 272/1/4
f 270/1/4 271/1/4 272/1/4
f 271/1/4 269/1/4 273/1/4
f 272/1/4 271/1/4 273/1/4
f 265/1/4 272/1/4 274/1/4
f 274/1/4 272/1/4 275/1/4
f 275/1/4 272/1/4 276/1/4
f 273/1/4 269/1/4 277/1/4
f 277/1/4 269/1/4 278/1/4
f 275/1/4 276/1/4 279/1/4
f 276/1/4 277/1/4 279/1/4
f 279/1/4 277/1/4 280/1/4
f 285/2/5 282/2/5 281/2/5
f 286/2/5 282/2/5 285/2/5
f 287/2/5 284/2/5 283/2/5
f 288/2/5 284/2/5 287/2/5
f 293/2/5 290/2/5 289/2/5
f 294/2/5 290/2/5 293/2/5
f 295/2/5 292/2/5 291/2/5
f 296/2/5 292/2/5 295/2/5
f 299/1/5 298/1/5 297/1/5
f 300/1/5 298/1/5 299/1/5
f 301/1/5 300/1/5 299/1/5
f 302/1/5 300/1/5 301/1/5
f 303/1/5 302/1/5 301/1/5
f 304/1/5 302/1/5 303/1/5
f 310/1/5 306/1/5 305/1/5
f 311/1/5 306/1/5 310/1/5
f 312/1/5 308/1/5 307/1/5
f 313/1/5 308/1/5 312/1/5
f 315/2/5 310/2/5 309/2/5
f 316/2/5 310/2/5 315/2/5
f 319/2/5 314/2/5 313/2/5
f 320/2/5 314/2/5 319/2/5
f 321/1/5 317/1/5 316/1/5
f 322/1/5 317/1/5 321/1/5
f 323/1/5 319/1/5 318/1/5
f 324/1/5 319/1/5 323/1/5
f 329/2/5 326/2/5 325/2/5
f 330/2/5 326/2/5 329/2/5
f 331/2/5 328/2/5 327/2/5
f 332/2/5 328/2/5 331/2/5
f 337/1/5 334/1/5 333/1/5
f 338/1/5 334/1/5 337/1/5
f 339/1/5 336/1/5 335/1/5
f 340/1/5 336/1/5 339/1/5
f 345/2/5 342/2/5 341/2/5
f 346/2/5 342/2/5 345/2/5
f 347/2/5 344/2/5 343/2/5
f 348/2/5 344/2/5 347/2/5
f 349/2/6 350/2/6 353/2/6
f 353/2/6 350/2/6 354/2/6
f 351/2/6 352/2/6 355/2/6
f 355/2/6 352/2/6 356/2/6
f 357/1/6 358/1/6 361/1/6
f 361/1/6 358/1/6 362/1/6
f 359/1/6 360/1/6 363/1/6
f 363/1/6 360/1/6 364/1/6
f 365/1/6 366/1/6 370/1/6
f 370/1/6 366/1/6 371/1/6
f 367/1/6 368/1/6 372/1/6
f 372/1/6 368/1/6 373/1/6
f 369/2/6 370/2/6 375/2/6
f 375/2/6 370/2/6 376/2/6
f 373/2/6 374/2/6 379/2/6
f 379/2/6 374/2/6 380/2/6
f 376/1/6 377/1/6 381/1/6
f 381/1/6 377/1/6 382/1/6
f 378/1/6 379/1/6 383/1/6
f 383/1/6 379/1/6 384/1/6
f 385/1/6 386/1/6 388/1/6
f 388/1/6 386/1/6 389/1/6
f 389/1/6 386/1/6 390/1/6
f 390/1/6 386/1/6 391/1/6
f 387/2/6 388/2/6 393/2/6
f 393/2/6 388/2/6 394/2/6
f 389/1/6 390/1/6 395/1/6
f 395/1/6 390/1/6 396/1/6
f 391/2/6 392/2/6 397/2/6
f 397/2/6 392/2/6 398/2/6
f 395/1/6 396/1/6 399/1/6
f 396/1/6 397/1/6 399/1/6
f 394/1/6 395/1/6 399/1/6
f 399/1/6 397/1/6 400/1/6
f 401/2/6 402/2/6 409/2/6
f 409/2/6 402/2/6 410/2/6
f 403/2/6 404/2/6 411/2/6
f 411/2/6 404/2/6 412/2/6
f 405/2/6 406/2/6 413/2/6
f 413/2/6 406/2/6 414/2/6
f 407/2/6 408/2/6 415/2/6
f 415/2/6 408/2/6 416/2/6
f 417/2/6 418/2/6 421/2/6
f 421/2/6 418/2/6 422/2/6
f 419/2/6 420/2/6 423/2/6
f 423/2/6 420/2/6 424/2/6
